<?xml version="1.0" encoding="utf-8"?>
<!-- Generator: Adobe Illustrator 17.0.0, SVG Export Plug-In . SVG Version: 6.00 Build 0)  -->
<!DOCTYPE svg PUBLIC "-//W3C//DTD SVG 1.1//EN" "http://www.w3.org/Graphics/SVG/1.1/DTD/svg11.dtd">
<svg version="1.1" xmlns="http://www.w3.org/2000/svg" xmlns:xlink="http://www.w3.org/1999/xlink" x="0px" y="0px" width="720px"
	 height="750px" viewBox="0 0 720 750" enable-background="new 0 0 720 750" xml:space="preserve">
<g id="Capa_1">
</g>
<g id="Layer_2">
	<polyline fill="none" stroke="#000000" stroke-width="5" stroke-linejoin="round" stroke-miterlimit="1" points="11.135,489.59 
		19.967,492.788 28.811,495.991 37.643,499.189 46.474,502.398 55.318,505.633 64.151,508.888 72.983,512.158 81.814,515.449 
		90.659,518.773 99.49,522.131 108.322,525.526 117.155,528.928 125.997,532.355 134.83,535.793 143.662,539.242 152.494,542.703 
		161.337,546.165 170.169,549.625 179,553.086 187.834,556.525 196.676,559.963 205.51,563.367 214.34,566.747 223.173,570.107 
		232.016,573.42 240.849,576.699 249.68,579.934 258.513,583.11 267.355,586.241 276.189,589.303 285.02,592.301 293.852,595.24 
		302.696,598.088 311.528,600.869 320.359,603.556 329.192,606.156 338.033,608.664 346.867,611.091 355.7,613.441 364.53,615.72 
		373.372,617.933 382.206,620.078 391.038,622.164 399.869,624.197 408.715,626.182 417.545,628.135 426.377,630.04 
		435.209,631.913 444.052,633.775 452.884,635.61 461.719,637.451 470.562,639.274 479.392,641.115 488.224,642.963 
		497.059,644.812 505.899,646.676 514.734,648.546 523.563,650.419 532.398,652.292 541.238,654.173 555.39,656.059 
		558.903,657.942 567.735,659.837 576.578,661.721 585.413,663.604 594.245,665.477 603.075,667.349 611.92,669.222 
		620.752,671.071 629.585,672.92 638.414,674.758 647.259,676.572 656.092,678.388 664.921,680.193 673.754,681.987 
		682.596,683.778 691.431,685.572 700.261,687.352 719.853,690.897 	"/>
</g>
</svg>
